<svg xmlns="http://www.w3.org/2000/svg" width="32" height="32" viewBox="0 0 32 32">
  <path fill="#FF385C" d="M16 1.916c-8.683 0-15.688 6.471-15.688 14.512S7.317 30.94 16 30.94s15.688-6.471 15.688-14.512S24.683 1.916 16 1.916zm7.25 10.603c-.279.791-1.353 3.619-3.267 6.425a39.467 39.467 0 0 1-3.692 4.673 38.647 38.647 0 0 1-3.693-4.673c-1.914-2.806-2.987-5.634-3.267-6.425C8.94 11.4 8.784 9.94 9.215 8.761a3.684 3.684 0 0 1 2.213-2.09c1.684-.52 3.42.062 4.417 1.488.052.074.103.152.155.234.052-.082.103-.16.155-.234.996-1.426 2.733-2.008 4.417-1.488a3.684 3.684 0 0 1 2.213 2.09c.431 1.179.275 2.639-.116 3.758H23.25zm-2.08 6.843c-1.579 2.453-3.298 4.502-4.708 5.762-1.464-1.298-3.238-3.411-4.836-5.91-.703-1.101-1.328-2.222-1.848-3.328-.184-.394-.492-1.392-.492-2.392 0-1.854 1.258-3.567 3.097-3.567.893 0 1.705.419 2.213 1.144l1.322 1.888a.662.662 0 0 0 1.082 0l1.322-1.888c.508-.725 1.32-1.144 2.213-1.144 1.84 0 3.098 1.713 3.098 3.567 0 1-.308 1.998-.492 2.392-.52 1.106-1.145 2.227-1.848 3.328a25.323 25.323 0 0 1-.125.148z"/>
</svg>